<svg width="104" height="22" viewBox="0 0 104 22" fill="none" xmlns="http://www.w3.org/2000/svg">
<path d="M16.4868 1.79179C17.7196 1.79534 18.9008 2.2685 19.7725 3.10793C20.6442 3.94737 21.1356 5.08487 21.1393 6.272V15.2314C21.1356 16.4186 20.6442 17.5561 19.7725 18.3955C18.9008 19.235 17.7196 19.7081 16.4868 19.7117H7.18272C5.94993 19.7081 4.76868 19.235 3.89696 18.3955C3.02524 17.5561 2.53389 16.4186 2.5302 15.2314V6.272C2.53389 5.08487 3.02524 3.94737 3.89696 3.10793C4.76868 2.2685 5.94993 1.79534 7.18272 1.79179H16.4868V1.79179ZM16.4868 0H7.18272C3.60037 0 0.669495 2.82233 0.669495 6.272V15.2314C0.669495 18.6811 3.60037 21.5034 7.18272 21.5034H16.4868C20.0691 21.5034 23 18.6811 23 15.2314V6.272C23 2.82233 20.0691 0 16.4868 0V0Z" fill="#274C5B"/>
<path d="M17.8826 6.27265C17.6065 6.27265 17.3367 6.19383 17.1072 6.04615C16.8777 5.89847 16.6988 5.68857 16.5931 5.443C16.4875 5.19742 16.4599 4.92719 16.5137 4.66649C16.5676 4.40578 16.7005 4.16631 16.8957 3.97836C17.0909 3.7904 17.3396 3.6624 17.6103 3.61054C17.881 3.55868 18.1616 3.5853 18.4167 3.68702C18.6717 3.78874 18.8897 3.961 19.043 4.18202C19.1964 4.40303 19.2782 4.66287 19.2782 4.92868C19.2786 5.10528 19.2428 5.28022 19.1728 5.44345C19.1028 5.60667 19 5.75498 18.8703 5.87986C18.7406 6.00473 18.5866 6.10371 18.4171 6.17112C18.2476 6.23852 18.066 6.27303 17.8826 6.27265V6.27265ZM11.8349 7.16831C12.571 7.16831 13.2906 7.37851 13.9027 7.77233C14.5147 8.16615 14.9918 8.72591 15.2735 9.38081C15.5552 10.0357 15.6289 10.7563 15.4853 11.4516C15.3417 12.1468 14.9872 12.7855 14.4667 13.2867C13.9462 13.7879 13.283 14.1293 12.561 14.2676C11.839 14.4059 11.0907 14.3349 10.4106 14.0636C9.73048 13.7924 9.1492 13.333 8.74023 12.7436C8.33126 12.1542 8.11297 11.4612 8.11297 10.7524C8.11403 9.80213 8.50649 8.8911 9.20426 8.21918C9.90203 7.54725 10.8481 7.16932 11.8349 7.16831V7.16831ZM11.8349 5.37651C10.7307 5.37651 9.6514 5.6918 8.73335 6.28251C7.81529 6.87321 7.09975 7.71281 6.67721 8.69512C6.25468 9.67743 6.14412 10.7583 6.35953 11.8012C6.57494 12.844 7.10663 13.8019 7.88737 14.5537C8.66812 15.3055 9.66285 15.8175 10.7458 16.0249C11.8287 16.2324 12.9512 16.1259 13.9713 15.719C14.9914 15.3121 15.8632 14.6231 16.4767 13.739C17.0901 12.855 17.4175 11.8156 17.4175 10.7524C17.4175 9.32661 16.8293 7.95924 15.7824 6.95107C14.7355 5.9429 13.3155 5.37651 11.8349 5.37651V5.37651Z" fill="#274C5B"/>
<path fill-rule="evenodd" clip-rule="evenodd" d="M62.3305 10.8163C62.3305 4.87885 57.3311 0.0645752 51.1653 0.0645752C44.9994 0.0645752 40 4.87885 40 10.8163C40 16.1826 44.0823 20.6306 49.4207 21.4379V13.9252H46.585V10.8163H49.4207V8.44756C49.4207 5.75339 51.088 4.26399 53.6381 4.26399C54.8598 4.26399 56.1378 4.47422 56.1378 4.47422V7.12039H54.7292C53.343 7.12039 52.9093 7.94885 52.9093 8.80035V10.8163H56.0057L55.5112 13.9252H52.9098V21.4389C58.2482 20.632 62.3305 16.184 62.3305 10.8163V10.8163Z" fill="#274C5B"/>
<path d="M103.256 3.44947C102.359 3.83943 101.409 4.09635 100.437 4.21209C101.458 3.61415 102.226 2.6642 102.597 1.54041C101.632 2.10495 100.577 2.50106 99.4788 2.71176C99.0163 2.22704 98.46 1.84143 97.8439 1.57836C97.2277 1.3153 96.5644 1.18029 95.8945 1.18153C93.1819 1.18153 90.9867 3.34479 90.9867 6.01149C90.9848 6.38242 91.0273 6.75225 91.1133 7.11307C89.1682 7.02188 87.2636 6.52569 85.5212 5.65623C83.7789 4.78677 82.2372 3.56319 80.9948 2.06378C80.559 2.79855 80.3285 3.63691 80.3274 4.49123C80.3274 6.16601 81.2012 7.64641 82.5206 8.51371C81.7389 8.49515 80.9732 8.28826 80.2885 7.91058V7.9704C80.2885 10.3131 81.9832 12.262 84.2263 12.7057C83.8045 12.8181 83.3698 12.8751 82.9333 12.8751C82.6235 12.8757 82.3145 12.8456 82.0107 12.7854C82.6342 14.7044 84.4491 16.1001 86.5989 16.14C84.852 17.4862 82.7073 18.2139 80.5019 18.2085C80.1104 18.208 79.7193 18.1847 79.3305 18.1388C81.5741 19.5714 84.1821 20.3292 86.8441 20.322C95.884 20.322 100.823 12.9599 100.823 6.57474C100.823 6.36539 100.817 6.15604 100.807 5.95168C101.766 5.26983 102.595 4.4225 103.256 3.44947V3.44947Z" fill="#274C5B"/>
</svg>
